0
SECTION
2
HEADER
9
$INSUNITS
70
1
9
$ACADVER
1
AC1014
9
$HANDSEED
5
FFFF
0
ENDSEC
0
SECTION
2
TABLES
0
TABLE
2
VPORT
5
8
100
AcDbSymbolTable
0
ENDTAB
0
TABLE
2
LTYPE
5
5
100
AcDbSymbolTable
0
LTYPE
5
14
100
AcDbSymbolTableRecord
100
AcDbLinetypeTableRecord
2
BYBLOCK
70
0
0
LTYPE
5
15
100
AcDbSymbolTableRecord
100
AcDbLinetypeTableRecord
2
BYLAYER
70
0
0
ENDTAB
0
TABLE
2
LAYER
5
2
100
AcDbSymbolTable
70
2
0
LAYER
5
50
100
AcDbSymbolTableRecord
100
AcDbLayerTableRecord
2
0
70
0
6
CONTINUOUS
0
ENDTAB
0
TABLE
2
STYLE
5
3
100
AcDbSymbolTable
70
1
0
STYLE
5
11
100
AcDbSymbolTableRecord
100
AcDbTextStyleTableRecord
2
STANDARD
70
0
0
ENDTAB
0
TABLE
2
VIEW
5
6
100
AcDbSymbolTable
70
0
0
ENDTAB
0
TABLE
2
UCS
5
7
100
AcDbSymbolTable
70
0
0
ENDTAB
0
TABLE
2
APPID
5
9
100
AcDbSymbolTable
70
2
0
APPID
5
12
100
AcDbSymbolTableRecord
100
AcDbRegAppTableRecord
2
ACAD
70
0
0
ENDTAB
0
TABLE
2
DIMSTYLE
5
A
100
AcDbSymbolTable
70
1
0
ENDTAB
0
TABLE
2
BLOCK_RECORD
5
1
100
AcDbSymbolTable
70
1
0
BLOCK_RECORD
5
1F
100
AcDbSymbolTableRecord
100
AcDbBlockTableRecord
2
*MODEL_SPACE
0
BLOCK_RECORD
5
1B
100
AcDbSymbolTableRecord
100
AcDbBlockTableRecord
2
*PAPER_SPACE
0
ENDTAB
0
ENDSEC
0
SECTION
2
BLOCKS
0
BLOCK
5
20
100
AcDbEntity
100
AcDbBlockBegin
2
*MODEL_SPACE
0
ENDBLK
5
21
100
AcDbEntity
100
AcDbBlockEnd
0
BLOCK
5
1C
100
AcDbEntity
100
AcDbBlockBegin
2
*PAPER_SPACE
0
ENDBLK
5
1D
100
AcDbEntity
100
AcDbBlockEnd
0
ENDSEC
0
SECTION
2
ENTITIES
0
ARC
5
100
100
AcDbEntity
8
0
100
AcDbCircle
10
8.4116116523516808
20
0.41161165235169156
30
0
40
0.12500000000000006
210
-0
220
0
230
1
100
AcDbArc
50
-45.000000000000099
51
134.99999999999935
0
LINE
5
101
100
AcDbEntity
8
0
100
AcDbLine
10
8.5
20
0.32322330470337207
30
0
11
8.5
21
1.1189649382048821e-14
31
0
0
LINE
5
102
100
AcDbEntity
8
0
100
AcDbLine
10
8.5
20
1.1189649382048821e-14
30
0
11
16.499999999999996
21
1.1189649382048821e-14
31
0
0
LINE
5
103
100
AcDbEntity
8
0
100
AcDbLine
10
16.499999999999996
20
1.1189649382048821e-14
30
0
11
16.499999999999996
21
0.3232233047033734
31
0
0
ARC
5
104
100
AcDbEntity
8
0
100
AcDbCircle
10
16.588388347648316
20
0.41161165235169189
30
0
40
0.12499999999999971
210
0
220
-0
230
1
100
AcDbArc
50
44.999999999999474
51
224.99999999999977
0
LINE
5
105
100
AcDbEntity
8
0
100
AcDbLine
10
16.676776695296635
20
0.50000000000000944
30
0
11
24.499999999999996
21
0.50000000000000955
31
0
0
LINE
5
106
100
AcDbEntity
8
0
100
AcDbLine
10
24.499999999999996
20
0.50000000000000955
30
0
11
24.499999999999996
21
9.8232233047033723
31
0
0
ARC
5
107
100
AcDbEntity
8
0
100
AcDbCircle
10
24.588388347648316
20
9.9116116523516915
30
0
40
0.12499999999999971
210
0
220
-0
230
1
100
AcDbArc
50
44.999999999999424
51
225
0
LINE
5
108
100
AcDbEntity
8
0
100
AcDbLine
10
24.676776695296635
20
10.000000000000009
30
0
11
24.999999999999996
21
10.000000000000007
31
0
0
LINE
5
109
100
AcDbEntity
8
0
100
AcDbLine
10
24.999999999999996
20
10.000000000000007
30
0
11
24.999999999999996
21
22.000000000000007
31
0
0
LINE
5
110
100
AcDbEntity
8
0
100
AcDbLine
10
24.999999999999996
20
22.000000000000007
30
0
11
24.676776695296635
21
22.000000000000007
31
0
0
ARC
5
111
100
AcDbEntity
8
0
100
AcDbCircle
10
24.588388347648316
20
22.088388347648326
30
0
40
0.12500000000000069
210
0
220
0
230
1
100
AcDbArc
50
135
51
315
0
LINE
5
112
100
AcDbEntity
8
0
100
AcDbLine
10
24.499999999999996
20
22.176776695296645
30
0
11
24.5
21
31.250000000000007
31
0
0
LINE
5
113
100
AcDbEntity
8
0
100
AcDbLine
10
24.5
20
31.250000000000007
30
0
11
16.676776695296642
21
31.250000000000007
31
0
0
ARC
5
114
100
AcDbEntity
8
0
100
AcDbCircle
10
16.588388347648319
20
31.338388347648319
30
0
40
0.12500000000000464
210
0
220
0
230
1
100
AcDbArc
50
135
51
315.00000000000347
0
LINE
5
115
100
AcDbEntity
8
0
100
AcDbLine
10
16.499999999999996
20
31.426776695296642
30
0
11
16.5
21
31.750000000000007
31
0
0
LINE
5
116
100
AcDbEntity
8
0
100
AcDbLine
10
16.5
20
31.750000000000007
30
0
11
8.5
21
31.750000000000007
31
0
0
LINE
5
117
100
AcDbEntity
8
0
100
AcDbLine
10
8.5
20
31.750000000000007
30
0
11
8.5
21
31.426776695296645
31
0
0
ARC
5
118
100
AcDbEntity
8
0
100
AcDbCircle
10
8.4116116523516808
20
31.33838834764833
30
0
40
0.12500000000000266
210
0
220
0
230
1
100
AcDbArc
50
-134.99999999999827
51
44.999999999998849
0
LINE
5
119
100
AcDbEntity
8
0
100
AcDbLine
10
8.3232233047033635
20
31.250000000000007
30
0
11
0.49999999999999978
21
31.250000000000007
31
0
0
LINE
5
120
100
AcDbEntity
8
0
100
AcDbLine
10
0.49999999999999978
20
31.250000000000007
30
0
11
0.49999999999999978
21
22.176776695296645
31
0
0
ARC
5
121
100
AcDbEntity
8
0
100
AcDbCircle
10
0.41161165235168207
20
22.088388347648326
30
0
40
0.12500000000000033
210
0
220
0
230
1
100
AcDbArc
50
-134.99999999999977
51
45.000000000000462
0
LINE
5
122
100
AcDbEntity
8
0
100
AcDbLine
10
0.32322330470336363
20
22.000000000000007
30
0
11
0
21
22.000000000000007
31
0
0
LINE
5
123
100
AcDbEntity
8
0
100
AcDbLine
10
0
20
22.000000000000007
30
0
11
0
21
10.000000000000007
31
0
0
LINE
5
124
100
AcDbEntity
8
0
100
AcDbLine
10
0
20
10.000000000000007
30
0
11
0.32322330470336358
21
10.000000000000009
31
0
0
ARC
5
125
100
AcDbEntity
8
0
100
AcDbCircle
10
0.4116116523516814
20
9.911611652351688
30
0
40
0.12499999999999921
210
-0
220
0
230
1
100
AcDbArc
50
-44.999999999999751
51
134.99999999999901
0
LINE
5
126
100
AcDbEntity
8
0
100
AcDbLine
10
0.49999999999999961
20
9.8232233047033706
30
0
11
0.49999999999999978
21
0.50000000000000955
31
0
0
LINE
5
127
100
AcDbEntity
8
0
100
AcDbLine
10
0.49999999999999978
20
0.50000000000000955
30
0
11
8.3232233047033635
21
0.50000000000001099
31
0
0
ARC
5
128
100
AcDbEntity
8
0
100
AcDbCircle
10
16.411611652351677
20
22.411611652351688
30
0
40
0.12500000000000069
210
-0
220
0
230
1
100
AcDbArc
50
-45
51
135
0
LINE
5
129
100
AcDbEntity
8
0
100
AcDbLine
10
16.499999999999996
20
22.323223304703369
30
0
11
16.499999999999996
21
22.176776695296645
31
0
0
ARC
5
130
100
AcDbEntity
8
0
100
AcDbCircle
10
16.411611652351677
20
22.088388347648326
30
0
40
0.12500000000000069
210
0
220
0
230
1
100
AcDbArc
50
-135
51
45
0
LINE
5
131
100
AcDbEntity
8
0
100
AcDbLine
10
16.323223304703358
20
22.000000000000007
30
0
11
8.6767766952966365
21
22.000000000000007
31
0
0
ARC
5
132
100
AcDbEntity
8
0
100
AcDbCircle
10
8.5883883476483192
20
22.088388347648326
30
0
40
0.12500000000000069
210
0
220
0
230
1
100
AcDbArc
50
135
51
314.99999999999943
0
LINE
5
133
100
AcDbEntity
8
0
100
AcDbLine
10
8.5
20
22.176776695296645
30
0
11
8.5
21
22.323223304703369
31
0
0
ARC
5
134
100
AcDbEntity
8
0
100
AcDbCircle
10
8.5883883476483192
20
22.411611652351688
30
0
40
0.12499999999999971
210
0
220
-0
230
1
100
AcDbArc
50
45.000000000000568
51
225
0
LINE
5
135
100
AcDbEntity
8
0
100
AcDbLine
10
8.6767766952966365
20
22.500000000000007
30
0
11
16.323223304703358
21
22.500000000000007
31
0
0
ARC
5
136
100
AcDbEntity
8
0
100
AcDbCircle
10
16.411611652351677
20
26.661611652351677
30
0
40
0.12499999999999674
210
0
220
0
230
1
100
AcDbArc
50
-44.999999999995367
51
135.0000000000023
0
LINE
5
137
100
AcDbEntity
8
0
100
AcDbLine
10
16.5
20
26.573223304703369
30
0
11
16.499999999999996
21
26.426776695296642
31
0
0
ARC
5
138
100
AcDbEntity
8
0
100
AcDbCircle
10
16.411611652351677
20
26.338388347648323
30
0
40
0.1249999999999987
210
0
220
0
230
1
100
AcDbArc
50
-135.00000000000117
51
45
0
LINE
5
139
100
AcDbEntity
8
0
100
AcDbLine
10
16.323223304703358
20
26.250000000000007
30
0
11
8.6767766952966401
21
26.250000000000007
31
0
0
ARC
5
140
100
AcDbEntity
8
0
100
AcDbCircle
10
8.5883883476483192
20
26.338388347648323
30
0
40
0.1249999999999987
210
0
220
0
230
1
100
AcDbArc
50
135
51
315.00000000000171
0
LINE
5
141
100
AcDbEntity
8
0
100
AcDbLine
10
8.5
20
26.426776695296642
30
0
11
8.5
21
26.573223304703369
31
0
0
ARC
5
142
100
AcDbEntity
8
0
100
AcDbCircle
10
8.5883883476483192
20
26.661611652351684
30
0
40
0.12500000000000069
210
0
220
-0
230
1
100
AcDbArc
50
44.999999999997691
51
224.99999999999883
0
LINE
5
143
100
AcDbEntity
8
0
100
AcDbLine
10
8.6767766952966419
20
26.75
30
0
11
16.323223304703358
21
26.749999999999989
31
0
0
ARC
5
144
100
AcDbEntity
8
0
100
AcDbCircle
10
16.411611652351677
20
18.161611652351688
30
0
40
0.12500000000000069
210
-0
220
0
230
1
100
AcDbArc
50
-45
51
135
0
LINE
5
145
100
AcDbEntity
8
0
100
AcDbLine
10
16.499999999999996
20
18.073223304703369
30
0
11
16.499999999999996
21
17.926776695296645
31
0
0
ARC
5
146
100
AcDbEntity
8
0
100
AcDbCircle
10
16.411611652351677
20
17.838388347648326
30
0
40
0.12500000000000069
210
0
220
0
230
1
100
AcDbArc
50
-135
51
45
0
LINE
5
147
100
AcDbEntity
8
0
100
AcDbLine
10
16.323223304703358
20
17.750000000000007
30
0
11
8.6767766952966365
21
17.750000000000007
31
0
0
ARC
5
148
100
AcDbEntity
8
0
100
AcDbCircle
10
8.5883883476483192
20
17.838388347648326
30
0
40
0.12500000000000069
210
0
220
0
230
1
100
AcDbArc
50
135
51
314.99999999999943
0
LINE
5
149
100
AcDbEntity
8
0
100
AcDbLine
10
8.5
20
17.926776695296645
30
0
11
8.5
21
18.073223304703369
31
0
0
ARC
5
150
100
AcDbEntity
8
0
100
AcDbCircle
10
8.5883883476483192
20
18.161611652351688
30
0
40
0.12499999999999971
210
0
220
-0
230
1
100
AcDbArc
50
45.000000000000568
51
225
0
LINE
5
151
100
AcDbEntity
8
0
100
AcDbLine
10
8.6767766952966365
20
18.250000000000007
30
0
11
16.323223304703358
21
18.250000000000007
31
0
0
ARC
5
152
100
AcDbEntity
8
0
100
AcDbCircle
10
16.411611652351677
20
13.91161165235169
30
0
40
0.12500000000000069
210
-0
220
0
230
1
100
AcDbArc
50
-45
51
135
0
LINE
5
153
100
AcDbEntity
8
0
100
AcDbLine
10
16.499999999999996
20
13.823223304703371
30
0
11
16.499999999999996
21
13.676776695296642
31
0
0
ARC
5
154
100
AcDbEntity
8
0
100
AcDbCircle
10
16.411611652351677
20
13.588388347648323
30
0
40
0.12500000000000069
210
0
220
0
230
1
100
AcDbArc
50
-135
51
45
0
LINE
5
155
100
AcDbEntity
8
0
100
AcDbLine
10
16.323223304703358
20
13.500000000000004
30
0
11
8.6767766952966365
21
13.500000000000004
31
0
0
ARC
5
156
100
AcDbEntity
8
0
100
AcDbCircle
10
8.5883883476483192
20
13.588388347648323
30
0
40
0.12500000000000069
210
0
220
0
230
1
100
AcDbArc
50
135
51
314.99999999999943
0
LINE
5
157
100
AcDbEntity
8
0
100
AcDbLine
10
8.5
20
13.676776695296642
30
0
11
8.5
21
13.823223304703371
31
0
0
ARC
5
158
100
AcDbEntity
8
0
100
AcDbCircle
10
8.5883883476483192
20
13.91161165235169
30
0
40
0.12499999999999971
210
0
220
-0
230
1
100
AcDbArc
50
45.000000000000568
51
225
0
LINE
5
159
100
AcDbEntity
8
0
100
AcDbLine
10
8.6767766952966365
20
14.000000000000009
30
0
11
16.323223304703358
21
14.000000000000009
31
0
0
ENDSEC
0
SECTION
2
OBJECTS
0
DICTIONARY
5
C
100
AcDbDictionary
3
ACAD_GROUP
350
D
3
ACAD_MLINESTYLE
350
17
0
DICTIONARY
5
D
100
AcDbDictionary
0
DICTIONARY
5
1A
330
C
100
AcDbDictionary
0
DICTIONARY
5
17
100
AcDbDictionary
0
ENDSEC
0
EOF
